name ./resultDataOpenSim/trcMotMarkerGrf/sub10/grf-14-08.mot
datacolumns 19
datarows 25
range 0.50400000 0.60000000
endheader

                time	     ground_force_vx	     ground_force_vy	     ground_force_vz	     ground_force_px	     ground_force_py	     ground_force_pz	   l_ground_force_vx	   l_ground_force_vy	   l_ground_force_vz	   l_ground_force_px	   l_ground_force_py	   l_ground_force_pz	     ground_torque_x	     ground_torque_y	     ground_torque_z	   l_ground_torque_x	   l_ground_torque_y	   l_ground_torque_z	
          0.50400000	         25.39301180	        470.21825233	        -18.06579192	         -0.73442225	          0.00000000	          0.05244861	          0.00000000	          0.00000000	          0.00000000	          0.00000000	          0.00000000	          0.00000000	          0.00000000	          3.24896102	          0.00000000	          0.00000000	          0.00000000	          0.00000000	
          0.50800000	         28.55520184	        471.90674027	        -19.31713187	         -0.73309703	          0.00000000	          0.05266219	          0.00000000	          0.00000000	          0.00000000	          0.00000000	          0.00000000	          0.00000000	          0.00000000	          3.11363165	          0.00000000	          0.00000000	          0.00000000	          0.00000000	
          0.51200000	         32.02478662	        474.24927267	        -20.36013447	         -0.73176336	          0.00000000	          0.05286084	          0.00000000	          0.00000000	          0.00000000	          0.00000000	          0.00000000	          0.00000000	          0.00000000	          2.99558326	          0.00000000	          0.00000000	          0.00000000	          0.00000000	
          0.51600000	         35.44666715	        477.29260785	        -21.13195078	         -0.73037309	          0.00000000	          0.05302696	          0.00000000	          0.00000000	          0.00000000	          0.00000000	          0.00000000	          0.00000000	          0.00000000	          2.91237138	          0.00000000	          0.00000000	          0.00000000	          0.00000000	
          0.52000000	         38.47883639	        481.05773379	        -21.63673374	         -0.72887920	          0.00000000	          0.05315057	          0.00000000	          0.00000000	          0.00000000	          0.00000000	          0.00000000	          0.00000000	          0.00000000	          2.87380013	          0.00000000	          0.00000000	          0.00000000	          0.00000000	
          0.52400000	         40.88030364	        485.54199847	        -21.94046380	         -0.72724543	          0.00000000	          0.05323231	          0.00000000	          0.00000000	          0.00000000	          0.00000000	          0.00000000	          0.00000000	          0.00000000	          2.87993957	          0.00000000	          0.00000000	          0.00000000	          0.00000000	
          0.52800000	         42.56801533	        490.72669911	        -22.15477996	         -0.72546554	          0.00000000	          0.05327995	          0.00000000	          0.00000000	          0.00000000	          0.00000000	          0.00000000	          0.00000000	          0.00000000	          2.92145071	          0.00000000	          0.00000000	          0.00000000	          0.00000000	
          0.53200000	         43.63607156	        496.58777759	        -22.41181079	         -0.72356404	          0.00000000	          0.05330421	          0.00000000	          0.00000000	          0.00000000	          0.00000000	          0.00000000	          0.00000000	          0.00000000	          2.98237271	          0.00000000	          0.00000000	          0.00000000	          0.00000000	
          0.53600000	         44.33001794	        503.10604945	        -22.83635805	         -0.72157928	          0.00000000	          0.05331850	          0.00000000	          0.00000000	          0.00000000	          0.00000000	          0.00000000	          0.00000000	          0.00000000	          3.04469838	          0.00000000	          0.00000000	          0.00000000	          0.00000000	
          0.54000000	         44.97128131	        510.27333266	        -23.51757346	         -0.71954658	          0.00000000	          0.05334091	          0.00000000	          0.00000000	          0.00000000	          0.00000000	          0.00000000	          0.00000000	          0.00000000	          3.09344318	          0.00000000	          0.00000000	          0.00000000	          0.00000000	
          0.54400000	         45.84532291	        518.10501439	        -24.48653342	         -0.71749400	          0.00000000	          0.05338010	          0.00000000	          0.00000000	          0.00000000	          0.00000000	          0.00000000	          0.00000000	          0.00000000	          3.12074609	          0.00000000	          0.00000000	          0.00000000	          0.00000000	
          0.54800000	         47.10063359	        526.63777916	        -25.71217600	         -0.71545989	          0.00000000	          0.05342237	          0.00000000	          0.00000000	          0.00000000	          0.00000000	          0.00000000	          0.00000000	          0.00000000	          3.12787362	          0.00000000	          0.00000000	          0.00000000	          0.00000000	
          0.55200000	         48.71662109	        535.84989094	        -27.10830875	         -0.71348939	          0.00000000	          0.05344692	          0.00000000	          0.00000000	          0.00000000	          0.00000000	          0.00000000	          0.00000000	          0.00000000	          3.12470535	          0.00000000	          0.00000000	          0.00000000	          0.00000000	
          0.55600000	         50.53641518	        545.54430783	        -28.54114514	         -0.71155911	          0.00000000	          0.05345154	          0.00000000	          0.00000000	          0.00000000	          0.00000000	          0.00000000	          0.00000000	          0.00000000	          3.12705729	          0.00000000	          0.00000000	          0.00000000	          0.00000000	
          0.56000000	         52.31864188	        555.37351204	        -29.85669313	         -0.70953373	          0.00000000	          0.05345620	          0.00000000	          0.00000000	          0.00000000	          0.00000000	          0.00000000	          0.00000000	          0.00000000	          3.15267592	          0.00000000	          0.00000000	          0.00000000	          0.00000000	
          0.56400000	         53.81945310	        565.06350846	        -30.93002636	         -0.70727062	          0.00000000	          0.05347736	          0.00000000	          0.00000000	          0.00000000	          0.00000000	          0.00000000	          0.00000000	          0.00000000	          3.21678930	          0.00000000	          0.00000000	          0.00000000	          0.00000000	
          0.56800000	         54.91240431	        574.61653333	        -31.69769098	         -0.70478212	          0.00000000	          0.05349933	          0.00000000	          0.00000000	          0.00000000	          0.00000000	          0.00000000	          0.00000000	          0.00000000	          3.32799475	          0.00000000	          0.00000000	          0.00000000	          0.00000000	
          0.57200000	         55.65847343	        584.25903539	        -32.15934082	         -0.70224911	          0.00000000	          0.05348180	          0.00000000	          0.00000000	          0.00000000	          0.00000000	          0.00000000	          0.00000000	          0.00000000	          3.48529812	          0.00000000	          0.00000000	          0.00000000	          0.00000000	
          0.57600000	         56.26120795	        594.18413434	        -32.37062726	         -0.69984650	          0.00000000	          0.05339723	          0.00000000	          0.00000000	          0.00000000	          0.00000000	          0.00000000	          0.00000000	          0.00000000	          3.67720577	          0.00000000	          0.00000000	          0.00000000	          0.00000000	
          0.58000000	         56.98299558	        604.35326198	        -32.43019807	         -0.69759985	          0.00000000	          0.05324949	          0.00000000	          0.00000000	          0.00000000	          0.00000000	          0.00000000	          0.00000000	          0.00000000	          3.88347869	          0.00000000	          0.00000000	          0.00000000	          0.00000000	
          0.58400000	         58.11188865	        614.56379695	        -32.45428205	         -0.69540324	          0.00000000	          0.05306562	          0.00000000	          0.00000000	          0.00000000	          0.00000000	          0.00000000	          0.00000000	          0.00000000	          4.07930628	          0.00000000	          0.00000000	          0.00000000	          0.00000000	
          0.58800000	         59.93978919	        624.72272562	        -32.54761923	         -0.69318216	          0.00000000	          0.05286885	          0.00000000	          0.00000000	          0.00000000	          0.00000000	          0.00000000	          0.00000000	          0.00000000	          4.24068128	          0.00000000	          0.00000000	          0.00000000	          0.00000000	
          0.59200000	         62.69544423	        635.02279052	        -32.77518952	         -0.69103889	          0.00000000	          0.05265390	          0.00000000	          0.00000000	          0.00000000	          0.00000000	          0.00000000	          0.00000000	          0.00000000	          4.34930089	          0.00000000	          0.00000000	          0.00000000	          0.00000000	
          0.59600000	         66.46746389	        645.79705642	        -33.15102641	         -0.68915029	          0.00000000	          0.05239790	          0.00000000	          0.00000000	          0.00000000	          0.00000000	          0.00000000	          0.00000000	          0.00000000	          4.39566005	          0.00000000	          0.00000000	          0.00000000	          0.00000000	
          0.60000000	         71.17730125	        657.21525539	        -33.64912475	         -0.68757233	          0.00000000	          0.05209502	          0.00000000	          0.00000000	          0.00000000	          0.00000000	          0.00000000	          0.00000000	          0.00000000	          4.37989111	          0.00000000	          0.00000000	          0.00000000	          0.00000000	
